<svg width="320" height="320" viewBox="0 0 320 320" fill="none" xmlns="http://www.w3.org/2000/svg">
<path d="M160.107 0C232.643 0.0526711 295.849 48.5628 314.668 118.615C317.356 128.57 319.043 138.683 319.676 149.007C324.473 227.223 275.448 290.534 210.239 311.971C197.535 316.132 184.567 318.713 171.23 319.609C152.094 320.925 133.275 318.924 114.824 313.551C114.297 313.393 113.77 313.288 113.243 313.025C112.294 312.551 112.03 311.76 112.505 310.812C112.716 310.391 112.979 310.075 113.243 309.706C160.16 243.183 207.023 176.606 253.94 110.083C263.323 96.8096 256.312 78.6907 240.445 75.2671C235.542 74.2136 230.798 74.8457 226.317 77.0052C209.343 85.0112 192.316 92.9646 175.342 100.971C118.567 127.675 61.6874 154.379 4.80765 181.136C4.38593 181.294 4.01692 181.505 3.5952 181.663C2.38275 182.137 1.48659 181.663 1.32845 180.346C1.06487 178.555 0.854009 176.712 0.695863 174.868C-0.147581 165.703 -0.253012 156.591 0.537717 147.427C2.38275 124.725 8.65587 103.341 19.5679 83.3784C41.7611 42.6636 80.5068 13.6418 125.895 3.68698C137.176 1.21144 148.562 0 160.107 0Z" fill="#3834FF"/>
<path d="M203.386 118.721C202.911 119.143 202.49 119.511 202.015 119.933C147.191 166.178 92.3675 212.476 37.5963 258.721C37.5436 258.774 37.4909 258.774 37.4909 258.827C35.7513 260.301 35.2769 260.301 33.9063 258.405C30.9015 254.244 27.9494 250.083 25.0501 245.922C24.8392 245.659 24.6811 245.343 24.5229 245.08C23.9958 244.079 24.1012 243.447 24.9974 242.762C25.3664 242.446 25.7354 242.235 26.1044 241.972C84.6711 201.152 143.185 160.279 201.752 119.459C202.226 119.143 202.753 118.827 203.228 118.511C203.28 118.563 203.333 118.669 203.386 118.721Z" fill="#3834FF"/>
<path d="M209.133 126.045C208.711 126.519 208.29 126.94 207.868 127.361C179.771 155.593 151.726 183.825 123.682 212.057C101.594 234.284 79.5064 256.511 57.366 278.738C55.2046 280.898 55.0465 281.003 52.8324 278.844C49.3005 275.42 45.7686 271.891 42.2894 268.415C40.7079 266.835 40.7606 266.203 42.5003 264.78C59.3164 250.665 76.1853 236.601 93.0015 222.538C131.115 190.619 169.28 158.753 207.446 126.835C207.921 126.466 208.342 126.097 208.817 125.781C208.975 125.834 209.028 125.939 209.133 126.045Z" fill="#3834FF"/>
<path d="M197.218 111.766C196.797 112.082 196.375 112.451 195.953 112.767C137.966 153.587 80.0323 194.407 22.0982 235.28C21.7819 235.491 21.4656 235.754 21.1493 235.912C20.1477 236.439 19.4624 236.281 18.8826 235.333C18.6717 235.017 18.5136 234.648 18.3554 234.332C16.2468 229.855 14.1382 225.378 12.0823 220.901C10.9753 218.425 11.0807 218.267 13.3475 216.95C26.7899 209.208 40.2323 201.465 53.6747 193.775C100.908 166.597 148.14 139.471 195.426 112.293C195.953 111.977 196.48 111.714 197.007 111.45C197.007 111.556 197.113 111.661 197.218 111.766Z" fill="#3834FF"/>
<path d="M215.353 132.996C214.931 133.522 214.562 134.049 214.088 134.523C173.866 182.77 133.644 230.964 93.4224 279.211C88.8361 284.689 84.2499 290.219 79.6637 295.749C78.2931 297.382 77.9241 297.488 76.1845 296.329C71.9145 293.485 67.5919 290.535 63.3747 287.585C61.4769 286.269 61.4769 285.584 63.1638 283.898C86.833 260.302 110.555 236.652 134.277 213.056C160.687 186.72 187.097 160.385 213.508 134.102C213.982 133.628 214.509 133.154 215.036 132.627C215.142 132.785 215.247 132.89 215.353 132.996Z" fill="#3834FF"/>
<path d="M190.155 105.13C189.575 105.499 188.942 105.868 188.362 106.237C141.92 133.204 95.4782 160.224 49.0361 187.192C36.3844 194.566 23.68 201.887 11.0284 209.314C9.0779 210.473 8.02359 210.525 7.3383 207.892C6.12585 203.099 4.80796 198.358 3.59551 193.565C3.06836 191.458 3.17379 191.3 5.17697 190.352C21.7823 182.662 38.4403 174.92 55.0456 167.23C99.4318 146.688 143.818 126.094 188.204 105.552C188.784 105.288 189.364 105.078 189.944 104.814C190.049 104.92 190.102 105.025 190.155 105.13Z" fill="#3834FF"/>
<path d="M218.939 143.159C218.57 143.686 218.254 144.212 217.885 144.739C201.912 167.704 185.94 190.616 169.967 213.528C148.195 244.761 126.477 275.995 104.705 307.229C103.071 309.6 103.018 309.652 100.383 308.494C96.2182 306.703 92.1064 304.701 87.8892 302.91C85.3589 301.804 85.5698 300.646 86.9931 298.907C97.5361 286.424 108.079 273.941 118.569 261.458C151.517 222.376 184.464 183.242 217.358 144.16C217.727 143.738 218.096 143.264 218.465 142.896C218.676 142.948 218.834 143.054 218.939 143.159Z" fill="#3834FF"/>
</svg>
